 <svg  version="1.0" xmlns="http://www.w3.org/2000/svg"  width="300.000000pt" height="94.000000pt" viewBox="0 0 300.000000 94.000000"  preserveAspectRatio="xMidYMid meet">  <g transform="translate(0.000000,94.000000) scale(0.100000,-0.100000)" fill="#f7f3f3" stroke="none"> <path d="M632 928 c-25 -13 -25 -26 2 -42 14 -8 20 -8 23 2 8 21 30 13 42 -16 11 -26 18 -138 9 -147 -7 -7 -115 -8 -126 -1 -8 5 -12 0 -12 -14 0 -20 4 -21 83 -18 l82 3 6 45 c10 72 -6 151 -36 178 -29 24 -39 26 -73 10z"/> <path d="M243 883 c27 -54 70 -174 64 -179 -2 -2 -18 18 -35 45 -33 50 -155 171 -173 171 -6 0 17 -30 51 -67 34 -37 76 -91 93 -120 25 -41 38 -52 58 -53 23 0 26 4 27 40 2 46 -15 93 -60 162 -39 62 -55 62 -25 1z"/> <path d="M0 914 c1 -5 24 -27 52 -49 28 -22 74 -66 102 -98 53 -61 117 -107 98 -70 -19 34 -91 110 -144 150 -72 54 -108 77 -108 67z"/> <path d="M582 873 c3 -19 53 -51 63 -42 10 11 -6 36 -31 48 -33 15 -36 14 -32 -6z"/> <path d="M1149 867 c-30 -15 -53 -20 -65 -16 -37 14 -165 10 -200 -7 -79 -37 -100 -120 -43 -168 29 -24 79 -36 79 -18 0 4 -16 14 -35 21 -62 22 -60 98 5 135 26 15 52 20 107 20 78 0 94 -6 75 -32 -6 -9 -31 -51 -54 -92 -63 -111 -101 -150 -148 -150 -64 0 -70 6 -70 67 l0 55 -77 -6 c-43 -3 -167 -9 -276 -12 l-197 -6 -40 26 c-22 14 -41 26 -42 26 -2 0 -2 -123 -2 -274 l1 -274 58 -80 c54 -75 59 -80 89 -76 17 2 135 16 261 30 127 14 230 27 230 28 0 0 -2 110 -5 244 -4 213 -3 241 10 236 33 -15 79 -15 106 -1 43 22 67 52 124 152 64 112 70 118 103 110 l26 -7 -23 -32 c-27 -35 -76 -130 -76 -146 0 -18 19 -11 66 25 25 20 55 40 66 46 19 10 18 9 -2 -19 -12 -17 -19 -35 -16 -41 9 -14 41 -14 66 -1 13 7 19 6 24 -5 11 -31 102 -11 136 30 21 25 4 29 -28 7 -34 -25 -78 -37 -86 -24 -3 5 12 14 34 21 47 14 69 45 43 59 -23 13 -58 -1 -105 -43 -43 -40 -73 -48 -38 -11 24 27 21 56 -6 56 -10 0 -37 -11 -61 -25 -23 -14 -43 -23 -43 -20 0 4 16 30 35 59 l35 53 50 -5 c56 -5 100 15 100 47 0 37 -82 43 -124 10 -19 -15 -34 -19 -53 -14 -33 8 -20 22 30 32 21 4 39 13 40 18 4 19 -39 15 -84 -8z m161 -41 c0 -14 -29 -26 -67 -26 -48 0 -5 38 45 39 12 1 22 -5 22 -13z m-960 -190 c52 2 160 5 240 8 83 2 152 0 162 -5 17 -9 18 -31 18 -274 0 -243 -1 -264 -17 -268 -52 -14 -124 -27 -173 -31 -30 -3 -55 -5 -55 -6 0 -1 -13 -3 -30 -6 -16 -2 -62 -9 -102 -15 -39 -6 -78 -9 -86 -6 -15 6 -21 74 -33 387 -4 91 -8 167 -10 169 -9 10 -3 -431 6 -479 13 -70 6 -74 -15 -10 -12 36 -25 55 -46 65 -37 19 -36 23 1 17 l30 -4 -2 183 c-1 101 -4 149 -5 107 -3 -55 -8 -78 -17 -78 -9 0 -12 23 -12 88 0 48 -4 101 -8 118 -6 26 -3 32 16 41 13 6 28 7 33 4 6 -4 53 -6 105 -5z"/> <path d="M631 536 c-14 -15 -19 -33 -18 -66 1 -28 -4 -52 -13 -63 -61 -73 -93 -76 -133 -15 -17 27 -27 56 -27 79 0 61 -45 81 -92 41 -22 -18 -23 -45 -4 -80 8 -15 19 -41 26 -58 16 -45 71 -94 116 -104 78 -18 148 17 185 92 66 131 66 175 2 190 -14 4 -28 -2 -42 -16z m66 -22 c3 -8 -1 -29 -10 -47 -8 -18 -23 -51 -33 -75 -25 -61 -75 -102 -123 -102 -48 0 -100 34 -123 80 -54 111 -56 118 -45 129 28 28 71 -5 46 -35 -9 -11 -6 -25 12 -61 59 -116 158 -114 211 5 13 28 17 53 13 72 -4 16 -4 34 0 40 10 16 45 12 52 -6z"/> <path d="M554 839 c-8 -14 39 -59 61 -59 23 0 10 31 -22 51 -23 15 -33 17 -39 8z"/> <path d="M433 813 c-7 -2 -13 -15 -13 -28 0 -17 -7 -24 -30 -29 -20 -4 -34 -14 -40 -32 -15 -38 -4 -47 54 -40 28 3 72 6 99 6 38 0 47 3 47 18 0 36 -29 62 -71 62 -40 0 -51 14 -27 38 12 12 3 15 -19 5z m65 -91 c2 -8 -12 -12 -49 -12 -50 0 -51 1 -35 19 13 14 24 17 48 12 17 -4 33 -12 36 -19z"/> <path d="M530 791 c0 -14 59 -61 76 -61 23 0 -1 37 -36 55 -34 17 -40 18 -40 6z"/> <path d="M2087 583 c-43 -13 -47 -17 -40 -36 4 -12 8 -111 8 -220 l0 -197 63 0 c61 0 63 1 56 23 -4 12 -7 118 -6 235 2 240 9 223 -81 195z m44 -40 c4 -31 6 -342 3 -355 -3 -10 -14 -18 -24 -18 -18 0 -19 11 -20 183 0 101 3 186 7 190 9 9 33 9 34 0z"/> <path d="M969 553 c-8 -9 -29 -22 -46 -30 l-33 -13 0 -159 c0 -87 -3 -173 -6 -190 l-6 -31 57 0 c54 0 57 1 52 23 -3 12 -9 92 -13 177 -7 153 -8 155 -23 118 -19 -45 -30 -49 -27 -8 2 30 27 65 60 82 26 14 46 -9 49 -55 1 -22 7 -37 15 -37 10 0 16 -23 13 -55 0 -5 12 -35 28 -65 32 -63 64 -78 81 -38 8 18 8 15 4 -17 -8 -51 -30 -87 -52 -83 -21 4 -84 180 -77 216 3 17 -1 25 -13 29 -9 2 -25 21 -34 41 -17 35 -17 35 -12 7 3 -16 26 -99 51 -183 l46 -153 46 3 45 3 47 145 c60 189 63 201 45 194 -8 -3 -17 -13 -19 -22 -3 -10 -5 -1 -4 18 1 19 8 42 16 50 16 16 60 22 76 9 17 -12 10 -354 -7 -354 -10 0 -14 30 -15 130 -4 194 -17 205 -23 20 -4 -88 -10 -168 -14 -177 -7 -16 -2 -18 50 -18 l59 0 0 220 0 220 -82 0 c-83 0 -83 0 -83 -26 0 -14 -16 -78 -36 -142 -47 -153 -46 -152 -52 -127 -2 11 -19 67 -37 125 -18 58 -36 120 -40 138 -6 28 -10 32 -40 32 -18 0 -39 -7 -46 -17z"/> <path d="M2795 470 c-38 -38 -65 -70 -60 -71 6 -1 20 0 33 1 21 1 22 -1 22 -95 0 -114 14 -156 59 -175 31 -13 118 -8 132 8 4 4 10 21 13 37 l7 30 -48 0 -48 0 -3 98 -3 97 49 0 c47 0 49 1 49 30 0 29 -1 30 -51 30 l-52 0 4 40 c6 60 -21 52 -103 -30z m88 -24 c13 -20 14 -25 1 -37 -9 -10 -14 -43 -15 -108 -2 -85 0 -96 19 -112 18 -14 19 -19 8 -28 -11 -9 -20 -6 -41 16 -25 25 -28 37 -32 117 -2 49 -8 97 -13 106 -6 11 -2 24 13 43 27 33 40 34 60 3z"/> <path d="M1835 458 c-43 -14 -50 -20 -46 -40 7 -46 6 -234 -2 -260 l-7 -28 71 0 c70 0 71 1 64 23 -5 12 -10 54 -12 92 -4 61 -2 74 18 99 18 24 28 27 60 24 l39 -4 0 55 0 54 -36 -6 c-20 -3 -43 -12 -51 -19 -14 -11 -46 -72 -47 -90 -1 -3 -4 -10 -8 -14 -5 -4 -8 -44 -8 -90 0 -63 -3 -83 -15 -87 -8 -4 -17 -2 -21 4 -9 15 -10 229 -1 229 5 0 5 5 2 10 -3 6 3 10 14 10 15 0 21 -6 21 -22 0 -16 3 -19 11 -11 5 5 9 28 7 49 l-3 39 -50 -17z"/> <path d="M1474 463 c-21 -4 -34 -36 -34 -84 0 -19 1 -19 40 1 75 38 150 18 150 -41 0 -29 0 -29 -30 -14 -16 8 -48 15 -71 15 -33 0 -47 -6 -75 -34 -27 -27 -34 -42 -34 -74 0 -100 124 -149 196 -77 l24 24 0 -24 c0 -24 3 -25 60 -25 l60 0 -15 36 c-10 23 -15 69 -15 126 0 104 -13 138 -64 162 -32 15 -136 20 -192 9z m202 -68 c21 -28 27 -48 30 -107 6 -91 0 -118 -26 -118 -11 0 -21 6 -22 13 -3 24 -6 102 -7 155 0 28 -4 52 -9 52 -5 0 -12 9 -15 20 -8 32 19 24 49 -15z m-176 -114 c-15 -29 -12 -68 6 -96 19 -29 6 -33 -26 -7 -34 28 -35 72 -2 99 33 28 36 28 22 4z m114 -7 c39 -15 3 -84 -44 -84 -31 0 -50 17 -50 45 0 12 5 26 12 33 13 13 56 16 82 6z"/> <path d="M2485 456 c-37 -16 -83 -68 -91 -102 -11 -44 2 -133 23 -162 45 -60 143 -86 241 -62 44 10 52 16 57 42 4 16 5 31 3 33 -2 2 -24 -1 -48 -6 -69 -16 -130 -6 -157 26 -13 14 -23 30 -23 36 0 5 54 9 126 9 l127 0 -7 47 c-7 55 -31 98 -69 126 -34 26 -138 34 -182 13z m-11 -91 c-4 -21 -2 -41 5 -48 8 -10 7 -22 -1 -45 -11 -28 -9 -35 10 -61 12 -17 18 -32 13 -35 -12 -8 -70 53 -77 81 -10 37 2 102 22 124 26 29 36 23 28 -16z m145 9 c34 -43 28 -49 -54 -49 -70 0 -74 1 -69 20 18 60 86 75 123 29z m58 4 c22 -20 32 -67 16 -69 -5 0 -15 -2 -23 -4 -12 -2 -15 5 -12 31 2 19 -1 41 -8 49 -19 23 1 18 27 -7z"/> <path d="M2257 453 c-4 -3 -7 -13 -7 -21 0 -8 -16 -36 -35 -62 -19 -26 -35 -51 -35 -55 0 -3 18 -37 40 -74 22 -37 40 -77 40 -89 0 -21 4 -22 76 -22 l75 0 -66 97 -66 96 23 26 c12 14 40 45 62 69 l40 42 -70 0 c-39 0 -74 -3 -77 -7z m24 -71 c-30 -43 -26 -80 14 -142 37 -57 44 -83 21 -74 -15 6 -48 54 -80 115 l-19 37 26 32 c15 17 27 38 27 45 0 12 20 26 29 19 2 -1 -6 -16 -18 -32z"/> </g> </svg> 